# xmcd
#
# Track frame offsets: 
#        150
#        11053
#        29268
#        40498
#        55160
#        73067
#        87273
#        101830
#        114220
#        132913
#        146928
#        165735
#
# Disc length: 2477 seconds
#
# Revision: 7
# Processed by: cddbd v1.5.2PL0 Copyright (c) Steve Scherf et al.
# Submitted via: ExactAudioCopyFreeDBPlugin 1.0
#
DISCID=a909ab0c
DTITLE=Lyle Lovett - Lyle Lovett and His Large Band
DYEAR=1989
DGENRE=Big Band
TTITLE0=The Blues Walk
TTITLE1=Here I Am
TTITLE2=Cryin' Shame
TTITLE3=Good Intentions
TTITLE4=I Know You Know
TTITLE5=What Do You Do - The Glory Of Love
TTITLE6=I Married Her Just Because She Looks Like You
TTITLE7=Stand By Your Man
TTITLE8=Which Way Does That Old Pony Run
TTITLE9=Nobody Knows Me
TTITLE10=If You Were To Wake Up
TTITLE11=Once Is Enough
EXTD=YEAR: 1989
EXTT0=
EXTT1=
EXTT2=
EXTT3=
EXTT4=
EXTT5=
EXTT6=
EXTT7=
EXTT8=
EXTT9=
EXTT10=
EXTT11=
PLAYORDER=
